<svg width="95" height="100" viewBox="0 0 95 100" fill="none" xmlns="http://www.w3.org/2000/svg">
<g id="logo-ready-title">
<g id="Clock-settings">
<g id="Settings">
<path id="Vector" d="M85.5394 60.9916L90.1522 58.8168C92.0322 57.9304 92.6765 55.9669 91.591 54.4311L82.8506 42.0683C82.1225 41.0384 80.801 40.4624 79.4426 40.4624C78.7755 40.4624 78.0997 40.6009 77.4808 40.8933L72.868 43.0681C72.2345 43.3665 71.5627 43.5028 70.9083 43.5028C68.8547 43.5028 66.9713 42.1619 66.9713 40.2877V35.9381C66.9713 34.1652 65.2114 32.7274 63.0397 32.7274H45.5587C43.3878 32.7274 41.6271 34.1646 41.6271 35.9381V40.2877C41.6271 42.1619 39.7431 43.5028 37.6902 43.5028C37.0358 43.5028 36.364 43.3665 35.7304 43.0681L31.1176 40.8933C30.4988 40.6014 29.8223 40.4629 29.1559 40.4624C27.7968 40.4624 26.476 41.0384 25.7479 42.0683L17.0078 54.4311C15.9223 55.9669 16.5666 57.9304 18.4466 58.8168L23.0594 60.9916C25.6802 62.2274 25.6802 65.3166 23.0594 66.5524L18.4466 68.7272C16.5659 69.6137 15.9223 71.5771 17.0078 73.113L25.7479 85.4757C26.476 86.5056 27.7975 87.0817 29.1559 87.0817C29.823 87.0817 30.4988 86.9426 31.1176 86.6507L35.7304 84.4759C36.364 84.1775 37.0358 84.0412 37.6902 84.0412C39.7438 84.0412 41.6271 85.3821 41.6271 87.2563V91.6059C41.6271 93.3788 43.3871 94.8167 45.5587 94.8167H63.0391C65.21 94.8167 66.9707 93.3794 66.9707 91.6059V87.2563C66.9707 85.3821 68.8547 84.0412 70.9076 84.0412C71.562 84.0412 72.2338 84.1775 72.8674 84.4759L77.4802 86.6507C78.099 86.9426 78.7755 87.0817 79.4419 87.0817C80.801 87.0817 82.1218 86.5056 82.8499 85.4757L91.5903 73.113C92.6758 71.5771 92.0315 69.6137 90.1515 68.7272L85.5387 66.5524C82.9183 65.3166 82.9183 62.2269 85.5394 60.9916ZM54.2996 73.2969C47.8578 73.2969 42.6362 69.0322 42.6362 63.772C42.6362 58.5113 47.8584 54.2471 54.2996 54.2471C60.7407 54.2471 65.9629 58.5119 65.9629 63.772C65.9629 69.0322 60.7407 73.2969 54.2996 73.2969Z" fill="url(#paint0_linear)"/>
<path id="hour" d="M53.803 63.7719L65.1722 68.4285" stroke="black" stroke-width="0.7"/>
<line id="minutes" y1="-0.35" x2="15.0536" y2="-0.35" transform="matrix(0.565264 -0.82491 0.907889 0.419211 54.2991 63.7719)" stroke="black" stroke-width="0.7"/>
<path id="seconds" d="M54.2991 63.7592L43.8989 50.1899" stroke="#EF2424" stroke-width="0.4" stroke-linejoin="round"/>
</g>
<g id="three">
<line id="Line 11" y1="-0.5" x2="5.3637" y2="-0.5" transform="matrix(-1 0 0 1 81.7642 64.3361)" stroke="black"/>
<line id="Line 12" y1="-0.5" x2="5.3637" y2="-0.5" transform="matrix(-1 0 0 1 81.7642 61.8454)" stroke="black"/>
<line id="Line 10" y1="-0.5" x2="5.3637" y2="-0.5" transform="matrix(-1 0 0 1 81.7642 66.8269)" stroke="black"/>
</g>
<g id="twelve">
<line id="Line 6" y1="-0.5" x2="5.5515" y2="-0.5" transform="matrix(0.722601 -0.691265 0.722601 0.691265 51.9116 44.2256)" stroke="black"/>
<line id="Line 7" y1="-0.5" x2="5.5515" y2="-0.5" transform="matrix(0.722601 0.691265 -0.722601 0.691265 51.3442 40.388)" stroke="black"/>
<line id="Line 8" x1="57.208" y1="39.8453" x2="57.208" y2="44.187" stroke="black"/>
<line id="Line 9" x1="59.6406" y1="39.8453" x2="59.6406" y2="44.187" stroke="black"/>
</g>
<g id="nine">
<line id="Line 6_2" y1="-0.5" x2="5.72836" y2="-0.5" transform="matrix(-0.814137 -0.577767 0.82646 -0.565978 31.6683 65.0612)" stroke="black"/>
<line id="Line 7_2" y1="-0.5" x2="5.72836" y2="-0.5" transform="matrix(0.82646 -0.565978 0.814137 0.577767 26.9646 65.4906)" stroke="black"/>
<line id="Line 8_2" y1="-0.5" x2="5.31717" y2="-0.5" transform="matrix(0.999974 0.00718583 -0.0107743 0.999942 26.2881 67.5771)" stroke="black"/>
</g>
<g id="six">
<line id="Line 10_2" y1="-0.5" x2="4.45282" y2="-0.5" transform="matrix(0.309923 0.950761 -0.976592 0.215098 52.6425 81.6313)" stroke="black"/>
<line id="Line 11_2" y1="-0.5" x2="4.45295" y2="-0.5" transform="matrix(0.311755 -0.950163 0.976886 0.213763 54.6585 85.8287)" stroke="black"/>
<line id="Line 12_2" x1="57.2172" y1="81.4579" x2="57.2172" y2="85.504" stroke="black"/>
</g>
</g>
<g id="ROJECT">
<path d="M48.9199 17.877H47.5195V21H45.7617V12.4688H48.9316C49.9395 12.4688 50.7168 12.6934 51.2637 13.1426C51.8105 13.5918 52.084 14.2266 52.084 15.0469C52.084 15.6289 51.957 16.1152 51.7031 16.5059C51.4531 16.8926 51.0723 17.2012 50.5605 17.4316L52.4062 20.918V21H50.5195L48.9199 17.877ZM47.5195 16.4531H48.9375C49.3789 16.4531 49.7207 16.3418 49.9629 16.1191C50.2051 15.8926 50.3262 15.582 50.3262 15.1875C50.3262 14.7852 50.2109 14.4688 49.9805 14.2383C49.7539 14.0078 49.4043 13.8926 48.9316 13.8926H47.5195V16.4531ZM60.6736 16.9277C60.6736 17.7676 60.5252 18.5039 60.2283 19.1367C59.9314 19.7695 59.5056 20.2578 58.9509 20.6016C58.4002 20.9453 57.7673 21.1172 57.0525 21.1172C56.3455 21.1172 55.7146 20.9473 55.1599 20.6074C54.6052 20.2676 54.1755 19.7832 53.8709 19.1543C53.5662 18.5215 53.4119 17.7949 53.408 16.9746V16.5527C53.408 15.7129 53.5584 14.9746 53.8591 14.3379C54.1638 13.6973 54.5916 13.207 55.1423 12.8672C55.697 12.5234 56.3298 12.3516 57.0408 12.3516C57.7517 12.3516 58.3826 12.5234 58.9334 12.8672C59.488 13.207 59.9158 13.6973 60.2166 14.3379C60.5212 14.9746 60.6736 15.7109 60.6736 16.5469V16.9277ZM58.8923 16.541C58.8923 15.6465 58.7322 14.9668 58.4119 14.502C58.0916 14.0371 57.6345 13.8047 57.0408 13.8047C56.4509 13.8047 55.9959 14.0352 55.6755 14.4961C55.3552 14.9531 55.1931 15.625 55.1892 16.5117V16.9277C55.1892 17.7988 55.3494 18.4746 55.6697 18.9551C55.99 19.4355 56.4509 19.6758 57.0525 19.6758C57.6423 19.6758 58.0955 19.4453 58.4119 18.9844C58.7283 18.5195 58.8884 17.8438 58.8923 16.957V16.541ZM65.6304 12.4688H67.3882V18.375C67.3882 18.918 67.2671 19.3984 67.0249 19.8164C66.7866 20.2305 66.4487 20.5508 66.0112 20.7773C65.5737 21.0039 65.0796 21.1172 64.5288 21.1172C63.6265 21.1172 62.9234 20.8887 62.4195 20.4316C61.9155 19.9707 61.6636 19.3203 61.6636 18.4805H63.4331C63.4331 18.8984 63.521 19.207 63.6968 19.4062C63.8726 19.6055 64.1499 19.7051 64.5288 19.7051C64.8648 19.7051 65.1323 19.5898 65.3316 19.3594C65.5308 19.1289 65.6304 18.8008 65.6304 18.375V12.4688ZM74.2669 17.3027H70.8919V19.5879H74.8528V21H69.1341V12.4688H74.8411V13.8926H70.8919V15.9258H74.2669V17.3027ZM82.8213 18.1582C82.7549 19.0762 82.4151 19.7988 81.8018 20.3262C81.1924 20.8535 80.3877 21.1172 79.3877 21.1172C78.294 21.1172 77.4327 20.75 76.8037 20.0156C76.1787 19.2773 75.8662 18.2656 75.8662 16.9805V16.459C75.8662 15.6387 76.0108 14.916 76.2998 14.291C76.5889 13.666 77.001 13.1875 77.5362 12.8555C78.0752 12.5195 78.7002 12.3516 79.4112 12.3516C80.3955 12.3516 81.1885 12.6152 81.7901 13.1426C82.3916 13.6699 82.7393 14.4102 82.833 15.3633H81.0752C81.0323 14.8125 80.878 14.4141 80.6123 14.168C80.3506 13.918 79.9502 13.793 79.4112 13.793C78.8252 13.793 78.3858 14.0039 78.0928 14.4258C77.8037 14.8438 77.6553 15.4941 77.6475 16.377V17.0215C77.6475 17.9434 77.7862 18.6172 78.0635 19.043C78.3448 19.4688 78.7862 19.6816 79.3877 19.6816C79.9307 19.6816 80.335 19.5586 80.6006 19.3125C80.8702 19.0625 81.0245 18.6777 81.0635 18.1582H82.8213ZM90.4617 13.8926H87.8484V21H86.0906V13.8926H83.5125V12.4688H90.4617V13.8926Z" fill="url(#paint1_linear)" style="mix-blend-mode:darken"/>
</g>
<g id="Management">
<path d="M47.7983 23.5234L49.0767 27.1328L50.3481 23.5234H51.6948V28.5H50.666V27.1396L50.7686 24.7915L49.4253 28.5H48.7212L47.3813 24.7949L47.4839 27.1396V28.5H46.4585V23.5234H47.7983ZM54.8085 28.5C54.7629 28.4111 54.7298 28.3006 54.7093 28.1685C54.4701 28.4351 54.159 28.5684 53.7762 28.5684C53.4139 28.5684 53.1131 28.4635 52.8739 28.2539C52.6369 28.0443 52.5184 27.7799 52.5184 27.4609C52.5184 27.069 52.6631 26.7682 52.9525 26.5586C53.2442 26.349 53.6646 26.243 54.2137 26.2407H54.6683V26.0288C54.6683 25.8579 54.6239 25.7212 54.535 25.6187C54.4484 25.5161 54.3106 25.4648 54.1214 25.4648C53.9551 25.4648 53.8241 25.5047 53.7284 25.5845C53.635 25.6642 53.5882 25.7736 53.5882 25.9126H52.6004C52.6004 25.6984 52.6665 25.5002 52.7987 25.3179C52.9309 25.1356 53.1177 24.9932 53.3592 24.8906C53.6008 24.7858 53.8719 24.7334 54.1727 24.7334C54.6284 24.7334 54.9896 24.8485 55.2562 25.0786C55.5251 25.3065 55.6595 25.6278 55.6595 26.0425V27.6455C55.6618 27.9964 55.7108 28.2619 55.8065 28.4419V28.5H54.8085ZM53.9916 27.813C54.1374 27.813 54.2718 27.7811 54.3949 27.7173C54.5179 27.6512 54.6091 27.5635 54.6683 27.4541V26.8184H54.2992C53.8047 26.8184 53.5415 26.9893 53.5096 27.3311L53.5062 27.3892C53.5062 27.5122 53.5495 27.6136 53.6361 27.6934C53.7227 27.7731 53.8412 27.813 53.9916 27.813ZM57.4675 24.8018L57.4983 25.229C57.7626 24.8986 58.1169 24.7334 58.5612 24.7334C58.9532 24.7334 59.2448 24.8485 59.4362 25.0786C59.6277 25.3088 59.7256 25.6528 59.7302 26.1108V28.5H58.7424V26.1348C58.7424 25.9251 58.6968 25.7736 58.6057 25.6802C58.5145 25.5845 58.363 25.5366 58.1511 25.5366C57.8731 25.5366 57.6646 25.6551 57.5256 25.8921V28.5H56.5378V24.8018H57.4675ZM62.7652 28.5C62.7196 28.4111 62.6866 28.3006 62.6661 28.1685C62.4268 28.4351 62.1158 28.5684 61.733 28.5684C61.3707 28.5684 61.0699 28.4635 60.8306 28.2539C60.5937 28.0443 60.4752 27.7799 60.4752 27.4609C60.4752 27.069 60.6199 26.7682 60.9093 26.5586C61.2009 26.349 61.6213 26.243 62.1705 26.2407H62.6251V26.0288C62.6251 25.8579 62.5806 25.7212 62.4918 25.6187C62.4052 25.5161 62.2673 25.4648 62.0782 25.4648C61.9119 25.4648 61.7808 25.5047 61.6851 25.5845C61.5917 25.6642 61.545 25.7736 61.545 25.9126H60.5572C60.5572 25.6984 60.6233 25.5002 60.7554 25.3179C60.8876 25.1356 61.0745 24.9932 61.316 24.8906C61.5575 24.7858 61.8287 24.7334 62.1295 24.7334C62.5852 24.7334 62.9464 24.8485 63.213 25.0786C63.4818 25.3065 63.6163 25.6278 63.6163 26.0425V27.6455C63.6186 27.9964 63.6676 28.2619 63.7633 28.4419V28.5H62.7652ZM61.9483 27.813C62.0942 27.813 62.2286 27.7811 62.3516 27.7173C62.4747 27.6512 62.5658 27.5635 62.6251 27.4541V26.8184H62.2559C61.7615 26.8184 61.4983 26.9893 61.4664 27.3311L61.463 27.3892C61.463 27.5122 61.5063 27.6136 61.5929 27.6934C61.6794 27.7731 61.7979 27.813 61.9483 27.813ZM64.3715 26.6235C64.3715 26.0562 64.506 25.5993 64.7748 25.2529C65.046 24.9066 65.4106 24.7334 65.8686 24.7334C66.2742 24.7334 66.5898 24.8724 66.8154 25.1504L66.8564 24.8018H67.7519V28.377C67.7519 28.7005 67.6778 28.9819 67.5297 29.2212C67.3839 29.4604 67.1777 29.6427 66.9111 29.7681C66.6445 29.8934 66.3323 29.9561 65.9746 29.9561C65.7034 29.9561 65.4391 29.9014 65.1816 29.792C64.9241 29.6849 64.7293 29.5459 64.5971 29.375L65.0346 28.7734C65.2807 29.0492 65.5792 29.187 65.9301 29.187C66.1922 29.187 66.3961 29.1164 66.5419 28.9751C66.6878 28.8361 66.7607 28.6379 66.7607 28.3804V28.1821C66.5328 28.4396 66.2332 28.5684 65.8618 28.5684C65.4174 28.5684 65.0574 28.3952 64.7817 28.0488C64.5082 27.7002 64.3715 27.2388 64.3715 26.6646V26.6235ZM65.3593 26.6953C65.3593 27.0303 65.4265 27.2935 65.561 27.4849C65.6954 27.674 65.88 27.7686 66.1147 27.7686C66.4155 27.7686 66.6308 27.6558 66.7607 27.4302V25.875C66.6285 25.6494 66.4155 25.5366 66.1215 25.5366C65.8845 25.5366 65.6977 25.6335 65.561 25.8271C65.4265 26.0208 65.3593 26.3102 65.3593 26.6953ZM70.3563 28.5684C69.8139 28.5684 69.3719 28.402 69.0301 28.0693C68.6906 27.7367 68.5208 27.2935 68.5208 26.7397V26.644C68.5208 26.2726 68.5926 25.9411 68.7361 25.6494C68.8797 25.3555 69.0825 25.1299 69.3445 24.9727C69.6089 24.8132 69.9096 24.7334 70.2469 24.7334C70.7527 24.7334 71.1504 24.8929 71.4397 25.2119C71.7314 25.5309 71.8772 25.9832 71.8772 26.5688V26.9722H69.5223C69.5542 27.2137 69.6499 27.4074 69.8094 27.5532C69.9712 27.6991 70.1751 27.772 70.4212 27.772C70.8017 27.772 71.0991 27.6341 71.3133 27.3584L71.7986 27.9019C71.6505 28.1115 71.45 28.2756 71.1971 28.394C70.9441 28.5103 70.6639 28.5684 70.3563 28.5684ZM70.2435 25.5332C70.0475 25.5332 69.888 25.5993 69.7649 25.7314C69.6442 25.8636 69.5667 26.0527 69.5325 26.2988H70.9065V26.2202C70.902 26.0015 70.8427 25.8328 70.7288 25.7144C70.6149 25.5936 70.4531 25.5332 70.2435 25.5332ZM73.5075 24.8018L73.5382 25.2153C73.8003 24.894 74.1546 24.7334 74.6012 24.7334C75.0775 24.7334 75.4045 24.9214 75.5822 25.2974C75.842 24.9214 76.2122 24.7334 76.693 24.7334C77.0941 24.7334 77.3926 24.8507 77.5885 25.0854C77.7845 25.3179 77.8825 25.6688 77.8825 26.1382V28.5H76.8913V26.1416C76.8913 25.932 76.8503 25.7793 76.7682 25.6836C76.6862 25.5856 76.5415 25.5366 76.3341 25.5366C76.0379 25.5366 75.8328 25.6779 75.7189 25.9604L75.7223 28.5H74.7345V26.145C74.7345 25.9308 74.6924 25.7759 74.6081 25.6802C74.5238 25.5845 74.3802 25.5366 74.1774 25.5366C73.8971 25.5366 73.6943 25.6528 73.569 25.8853V28.5H72.5812V24.8018H73.5075ZM80.4868 28.5684C79.9445 28.5684 79.5025 28.402 79.1607 28.0693C78.8211 27.7367 78.6514 27.2935 78.6514 26.7397V26.644C78.6514 26.2726 78.7232 25.9411 78.8667 25.6494C79.0103 25.3555 79.2131 25.1299 79.4751 24.9727C79.7394 24.8132 80.0402 24.7334 80.3775 24.7334C80.8833 24.7334 81.2809 24.8929 81.5703 25.2119C81.862 25.5309 82.0078 25.9832 82.0078 26.5688V26.9722H79.6529C79.6848 27.2137 79.7805 27.4074 79.94 27.5532C80.1017 27.6991 80.3057 27.772 80.5518 27.772C80.9323 27.772 81.2297 27.6341 81.4439 27.3584L81.9292 27.9019C81.7811 28.1115 81.5806 28.2756 81.3277 28.394C81.0747 28.5103 80.7945 28.5684 80.4868 28.5684ZM80.374 25.5332C80.1781 25.5332 80.0186 25.5993 79.8955 25.7314C79.7748 25.8636 79.6973 26.0527 79.6631 26.2988H81.0371V26.2202C81.0326 26.0015 80.9733 25.8328 80.8594 25.7144C80.7455 25.5936 80.5837 25.5332 80.374 25.5332ZM83.621 24.8018L83.6517 25.229C83.9161 24.8986 84.2704 24.7334 84.7147 24.7334C85.1067 24.7334 85.3983 24.8485 85.5897 25.0786C85.7811 25.3088 85.8791 25.6528 85.8837 26.1108V28.5H84.8959V26.1348C84.8959 25.9251 84.8503 25.7736 84.7592 25.6802C84.668 25.5845 84.5165 25.5366 84.3046 25.5366C84.0266 25.5366 83.8181 25.6551 83.6791 25.8921V28.5H82.6913V24.8018H83.621ZM87.9582 23.8926V24.8018H88.5906V25.5264H87.9582V27.3721C87.9582 27.5088 87.9844 27.6068 88.0369 27.666C88.0893 27.7253 88.1895 27.7549 88.3376 27.7549C88.447 27.7549 88.5439 27.7469 88.6282 27.731V28.4795C88.4345 28.5387 88.2351 28.5684 88.03 28.5684C87.3373 28.5684 86.9841 28.2186 86.9704 27.519V25.5264H86.4304V24.8018H86.9704V23.8926H87.9582Z" fill="url(#paint2_linear)" style="mix-blend-mode:darken"/>
</g>
<path id="Rectangle 6" d="M7.78252 100L0.0840385 19.6541C-1.25516 5.67751 13.6718 -4.41971 26.2537 1.95187L34.5852 6.17099C49.489 13.7184 43.3413 36.1628 26.505 35.6701C17.7963 35.4153 10.4183 42.1899 10.0257 50.8016L7.78252 100Z" fill="url(#paint3_linear)"/>
<path id="Rectangle 7" d="M20.7489 31.2249C14.6302 35.2377 6.73785 31.5604 6.73782 24.6548L6.73779 19.2467C6.73775 11.3417 15.4704 5.68382 22.719 8.89249L32.0301 13.0141C40.8932 16.9375 36.573 30.2268 26.6294 29.6272C24.5884 29.5042 22.5067 30.0721 20.7489 31.2249Z" fill="white"/>
<g id="inside-p">
<path id="arrow-1" d="M10.3636 15.3974C9.89881 15.423 9.55787 15.7354 9.60173 16.0955C9.64582 16.4556 10.0582 16.7268 10.5229 16.7014L12.6494 16.5849C9.32339 19.9659 9.81987 24.8 13.7438 27.8686L13.6566 27.686C13.4072 27.1633 13.5356 26.5792 13.9914 26.1616C14.0011 26.1527 14.0117 26.1447 14.0216 26.1361C11.5775 23.5731 11.47 20.0394 13.9352 17.4651L14.1319 19.075C14.1759 19.4351 14.5883 19.7064 15.0531 19.6809C15.2855 19.6682 15.4868 19.5837 15.6247 19.4574C15.7625 19.3311 15.8368 19.1629 15.8148 18.983L15.4229 15.7767C15.4017 15.6038 15.2928 15.4429 15.1201 15.3293C14.9473 15.2157 14.725 15.1587 14.5018 15.1709L10.3636 15.3974Z" fill="#48C64D"/>
<g id="person">
<path id="Vector_2" d="M21.224 18.8559C22.4546 18.8559 23.4558 17.891 23.4558 16.7048C23.4558 15.5186 22.4546 14.5536 21.224 14.5536C19.9934 14.5536 18.9923 15.5186 18.9923 16.7048C18.9923 17.8909 19.9934 18.8559 21.224 18.8559Z" fill="#0028F9" fill-opacity="0.8"/>
<path id="Vector 2" d="M25.5718 24.6548V21.6975C25.5718 20.879 25.026 20.1531 24.219 19.8983L24.2153 19.8971L23.0348 19.7087C22.9344 19.6789 22.827 19.7302 22.7909 19.8257L21.4515 23.3679C21.3742 23.5723 21.0743 23.5723 20.9971 23.3679L19.6577 19.8257C19.6285 19.7486 19.553 19.7002 19.472 19.7002C19.4528 19.7002 18.2333 19.8968 18.2333 19.8968C17.4197 20.1582 16.876 20.8852 16.876 21.7074V24.6548C16.876 25.0965 17.2475 25.4545 17.7057 25.4545H24.742C25.2004 25.4545 25.5718 25.0964 25.5718 24.6548Z" fill="#4664D1"/>
<path id="Vector 3" d="M21.7104 19.6684C21.659 19.6144 21.5838 19.5872 21.5076 19.5872H20.9402C20.8642 19.5872 20.7889 19.6144 20.7375 19.6684C20.6578 19.7521 20.6463 19.8729 20.7028 19.9673L21.0061 20.408L20.8641 21.5625L21.1437 22.2795C21.171 22.3516 21.2767 22.3516 21.3041 22.2795L21.5837 21.5625L21.4417 20.408L21.745 19.9673C21.8016 19.8729 21.79 19.7521 21.7104 19.6684Z" fill="black"/>
</g>
<path id="arrow-2" d="M25.2516 12.7271C26.0904 12.99 26.3826 13.6927 26.1592 14.4067C29.7115 15.8714 31.5652 19.177 30.5128 22.4026L29.6368 21.0136C29.4408 20.7029 28.9652 20.5857 28.5744 20.7517C28.1835 20.9179 28.0256 21.3042 28.2214 21.6149L29.9659 24.3812C30.1619 24.6919 30.6375 24.8091 31.0284 24.643L34.5087 23.1645C34.7041 23.0815 34.8413 22.9434 34.9052 22.7872C34.9691 22.631 34.9596 22.4567 34.8617 22.3014C34.6658 21.9908 34.1901 21.8735 33.7992 22.0396L32.0109 22.7993C33.4887 18.4891 30.5415 14.0309 25.2516 12.7271Z" fill="#5286EC" fill-opacity="0.93"/>
</g>
</g>
<defs>
<linearGradient id="paint0_linear" x1="54.2993" y1="32.7274" x2="54.2993" y2="94.8167" gradientUnits="userSpaceOnUse">
<stop offset="0.578125" stop-color="#4664D1"/>
<stop offset="1" stop-color="#46D14B" stop-opacity="0.59"/>
</linearGradient>
<linearGradient id="paint1_linear" x1="69" y1="10" x2="69" y2="21" gradientUnits="userSpaceOnUse">
<stop offset="0.411458" stop-color="#4664D1"/>
<stop offset="1" stop-color="#46D175" stop-opacity="0.79"/>
</linearGradient>
<linearGradient id="paint2_linear" x1="70.5071" y1="22.5" x2="73.4523" y2="39.824" gradientUnits="userSpaceOnUse">
<stop offset="0.5625" stop-color="#4664D1"/>
<stop offset="1" stop-color="#46D17E" stop-opacity="0.81"/>
</linearGradient>
<linearGradient id="paint3_linear" x1="21.9736" y1="8.90578e-09" x2="21.5223" y2="100" gradientUnits="userSpaceOnUse">
<stop offset="0.0188868" stop-color="#4664D1"/>
<stop offset="0.989583" stop-color="#46D17E" stop-opacity="0.63"/>
</linearGradient>
</defs>
</svg>
